<?xml version="1.0" encoding="UTF-8" standalone="no"?>
<!-- Generator: Adobe Illustrator 16.0.0, SVG Export Plug-In . SVG Version: 6.00 Build 0)  -->

<svg
   xmlns:osb="http://www.openswatchbook.org/uri/2009/osb"
   xmlns:dc="http://purl.org/dc/elements/1.1/"
   xmlns:cc="http://creativecommons.org/ns#"
   xmlns:rdf="http://www.w3.org/1999/02/22-rdf-syntax-ns#"
   xmlns:svg="http://www.w3.org/2000/svg"
   xmlns="http://www.w3.org/2000/svg"
   xmlns:xlink="http://www.w3.org/1999/xlink"
   xmlns:sodipodi="http://sodipodi.sourceforge.net/DTD/sodipodi-0.dtd"
   xmlns:inkscape="http://www.inkscape.org/namespaces/inkscape"
   version="1.2"
   x="0px"
   y="0px"
   width="512px"
   height="512px"
   viewBox="0 0 512 512"
   xml:space="preserve"
   id="svg2"
   inkscape:version="0.91 r13725"
   sodipodi:docname="monoliten.svg"><metadata
     id="metadata14"><rdf:RDF><cc:Work
         rdf:about=""><dc:format>image/svg+xml</dc:format><dc:type
           rdf:resource="http://purl.org/dc/dcmitype/StillImage" /><dc:title></dc:title></cc:Work></rdf:RDF></metadata><defs
     id="defs12"><inkscape:perspective
       sodipodi:type="inkscape:persp3d"
       inkscape:vp_x="0 : 256 : 1"
       inkscape:vp_y="0 : 1000 : 0"
       inkscape:vp_z="512 : 256 : 1"
       inkscape:persp3d-origin="256 : 170.66667 : 1"
       id="perspective4396" /><linearGradient
       id="linearGradient4214"
       osb:paint="solid"><stop
         style="stop-color:#000000;stop-opacity:1;"
         offset="0"
         id="stop4216" /></linearGradient><linearGradient
       inkscape:collect="always"
       xlink:href="#linearGradient4214"
       id="linearGradient4218"
       x1="10.302013"
       y1="258.22686"
       x2="501.71369"
       y2="258.22686"
       gradientUnits="userSpaceOnUse"
       gradientTransform="translate(1.6452615,0.82263077)" /></defs><sodipodi:namedview
     pagecolor="#ffffff"
     bordercolor="#666666"
     borderopacity="1"
     objecttolerance="10"
     gridtolerance="10"
     guidetolerance="10"
     inkscape:pageopacity="0"
     inkscape:pageshadow="2"
     inkscape:window-width="1366"
     inkscape:window-height="744"
     id="namedview10"
     showgrid="false"
     inkscape:object-nodes="true"
     inkscape:snap-smooth-nodes="true"
     inkscape:zoom="1.2156122"
     inkscape:cx="254.32124"
     inkscape:cy="245.77235"
     inkscape:window-x="0"
     inkscape:window-y="24"
     inkscape:window-maximized="1"
     inkscape:current-layer="svg2" /><path
     style="fill:none;fill-rule:nonzero;stroke:url(#linearGradient4218);stroke-width:25;stroke-linecap:round;stroke-linejoin:round;stroke-miterlimit:10;stroke-dasharray:none;stroke-opacity:1"
     d="m 98.57737,104.28105 c 13.12822,-24.000576 55.71031,-21.115989 57.71661,6.89654 2.60009,36.30332 -39.19139,61.97173 -73.586019,54.12998 C 44.802738,156.66542 20.112345,119.87281 31.196006,82.406419 43.379584,41.221953 88.460885,25.364729 127.33746,22.427627 159.29262,20.013434 203.93398,38.695043 213.06808,72.424678 234.52823,151.6709 195.87759,278.27274 129.93623,312.26091 101.213,327.06573 57.133647,332.00838 36.52801,303.26356 16.429469,275.22614 38.229378,232.26011 69.098048,220.32601 119.20887,200.95273 174.22221,206.14535 226.84585,205.67706 c 57.99346,-0.51607 117.19457,5.28929 174.15722,-9.14582 C 450.35123,184.02575 480.3602,142.92439 478.22334,91.935148 476.7683,57.215344 428.4022,22.681335 393.69363,25.330889 342.69349,29.224094 323.37188,67.015119 306.494,111.81563 279.28569,184.0371 268.4179,254.96352 243.45609,325.16109 223.57987,381.05699 190.45032,439.61251 139.45498,472.73475 109.11643,492.44009 62.334565,493.25071 36.697069,465.84969 14.620264,442.25429 31.961457,403.3553 58.77684,392.72425 c 61.9285,-24.55178 116.13549,-2.22794 167.37187,26.75283 51.23637,28.98078 92.09845,65.44112 142.1445,67.51712 43.51488,1.80507 90.41908,-28.50383 105.43947,-68.75889 19.71944,-52.84864 4.31561,-123.41082 -49.66177,-149.20548 -41.07416,-19.62849 -94.53303,-3.72374 -115.90865,37.30736 -15.80368,30.3356 -12.99517,73.65867 19.48363,92.13788 28.74456,16.35457 75.6632,8.78324 82.13686,-25.77811 5.9791,-31.92104 -27.91988,-56.28327 -51.39222,-25.71592"
     id="line-monogram_1_"
     inkscape:connector-curvature="0"
     sodipodi:nodetypes="cssssssssssssssssssssssssc" /></svg>