<svg viewBox="0 0 595.28 116.67">
<path id="github" 
      d="M382.25,17.23c-1.89,4.86-2.04,9.25-0.45,13.16c-14.23,15.29-0.04,35.88,17.49,37.73
      c-1.72,1.55-2.77,3.77-3.17,6.65c-5.54,2.65-11.35,1.24-14.38-4.13c-1.29-2.18-3.77-4.39-6.32-4.9l-1.29-0.19
      c-2.69,0-2.57,1.44-0.77,2.71l0.45,0.33c2.19,1.42,3.8,3.34,4.84,5.74l0.64,1.48c2.07,6.05,9.75,7.11,15.22,6.12l1.48-0.26
      c0,1.63,0.01,9.42,0.03,11.61
      M382.25,17.23c4.17-1.29,10.42,2.85,13.68,5.1c8.04-2.25,16.73-2.25,24.77,0l2.46-1.55
      c2.77-1.71,7.72-4.65,11.16-3.55c1.93,4.86,2.11,9.24,0.51,13.16c14.27,15.33-0.01,35.88-17.55,37.73c2.23,1.94,3.36,4.99,3.36,9.17
      v15.99"
/>
<path id="twitter" 
      d="M111.49,33.62c3.62-0.44,7.07-1.4,10.27-2.82h0c-2.4,3.59-5.43,6.74-8.93,9.26
      c1.67,40.45-43.71,67.34-78.28,45.18
      M40.63,25.69c-4.7,8.06-2.21,18.7,5.54,23.88c-2.93-0.1-5.69-0.9-8.1-2.24
      c-0.33,8.46,6.18,16.13,14.35,17.77c-2.63,0.72-5.4,0.82-8.08,0.3c2.28,7.11,8.88,12.28,16.71,12.43
      c-7.46,5.84-17.08,8.52-26.49,7.41
      M111.49,33.62c3.69-2.22,6.53-5.72,7.87-9.9c-3.46,2.05-7.28,3.54-11.36,4.34
      C95.71,14.98,73.47,27,77.51,44.38c-14.87-0.75-28.05-7.87-36.88-18.69"
      />
<path id="googleplus" 
      d="M176.38,93.28c18.53,0,31.75-14,31.75-32.35l0,0h-31.59 M176.38,93.28
      c-23.88,0-40.47-25.78-29.97-47.5c9.48-19.62,36.11-24.99,52.14-10.12
      M217.74,60.15h30.49 M232.98,75.44V44.86"
      /> 
<path id="stackoverflow" 
      d="M320.04,68.5l-37.45-7.89 M288.33,42.96L323,59.17
      M328.15,51.06l-29.37-24.54 M312.27,13.68l22.82,30.66 M280.94,77.95h38.27
      M269.62,66.49v26.79h60.71V66.49"
/>
<path id="codepen" 
      d="M474.21,43.67l38.27,25.51h0v25.51h0l-38.27-25.51
      M512.48,69.18l38.27-25.51h0v25.51h0 l-38.27,25.51
      M550.74,69.18l-38.27-25.51h0V18.16h0l38.27,25.51
      M512.48,43.67l-38.27,25.51h0V43.67h0l38.27-25.51"
      />
</svg>
