<?xml version="1.0" encoding="utf-8"?><svg class="icon" id="arrows_rotate_anti_dashed" style="fill:none; stroke:black; stroke-width:2;" viewBox="0 0 64 64" xmlns="http://www.w3.org/2000/svg"><g><g><g><path d="M31,1c-0.667,0-1.333,0.022-1.998,0.066"/><path d="M26.929,1.275     C20.659,2.13,14.607,4.967,9.788,9.787C-0.91,20.484-1.841,37.248,6.997,49l3.846,3.847" stroke-dasharray="4.1705,2.0853"/><line x1="11.584" x2="12.998" y1="53.588" y2="55.002"/></g></g></g><g><g><g><path d="M33,63c0.667,0,1.333-0.022,1.998-0.066"/><path d="M37.071,62.725     c6.27-0.854,12.321-3.691,17.141-8.512C64.91,43.516,65.841,26.752,57.003,15l-3.846-3.847" stroke-dasharray="4.1705,2.0853"/><line x1="52.416" x2="51.002" y1="10.412" y2="8.998"/></g></g></g><polyline points="13,44 13,55 2,55   "/><polyline points="51,20 51,9 62,9   "/></svg>