<?xml version="1.0" encoding="utf-8"?>
<svg style="fill:none; stroke:black; stroke-width:2;" viewBox="0 0 64 64">
  <path d="M33,1c0.666,0,1.333,0.022,2,0.066"/>
  <path d="M37.071,1.276 c6.27,0.854,12.321,3.691,17.141,8.511C64.91,20.484,65.841,37.248,57,49l-3.846,3.846" stroke-dasharray="4.1705,2.0853"/>
  <line x1="52.416" x2="51" y1="53.588" y2="55"/>
  <path d="M31,63c-0.666,0-1.333-0.022-2-0.066"/>
  <path d="M26.929,62.724 c-6.27-0.854-12.321-3.691-17.141-8.511C-0.91,43.516-1.841,26.752,7,15l3.846-3.846" stroke-dasharray="4.1705,2.0853"/>
  <line x1="11.584" x2="13" y1="10.412" y2="9"/>
  <polyline points="51,44 51,55 62,55"/>
  <polyline points="13,20 13,9 2,9"/>
</svg>
