<?xml version="1.0" encoding="utf-8"?><svg class="icon" id="basic_elaboration_mail_heart" style="fill:none; stroke:black; stroke-width:2;" viewBox="0 0 64 64" xmlns="http://www.w3.org/2000/svg"><g><polyline points="1,26 32,45.434 63,26  "/><polyline points="11.334,21.667 1,26 1,63 63,63 63,26    63,26 52.666,21.667  "/><polyline points="11,32 11,1 53,1 53,32  "/></g><path d="M22,19c0,6.666,10,12,10,12s10-5.334,10-12  c0-2.762-2-5-5-5c-2.762,0-5,2.238-5,5c0-2.762-2.238-5-5-5C24,14,22,16.238,22,19z"/></svg>