<?xml version="1.0" encoding="utf-8"?>
<svg style="fill:none; stroke:black; stroke-width:2;" viewBox="0 0 64 64">
  <polygon points="44,59 16,45 36,5 63,19"/>
  <polyline points="31.899,14 28,6 1,20 19,59 32,52.964"/>
  <line x1="38" x2="37" y1="9" y2="11"/>
  <line x1="7" x2="6" y1="23" y2="21"/>
  <line x1="43" x2="42" y1="53" y2="55"/>
  <path d="M33,25c-2.848,5.281,3,15,3,15s11.151,0.28,14-5 c1.18-2.188,1.377-5.718-1-7c-2.188-1.18-5.82-1.188-7,1c1.18-2.188,0.188-4.82-2-6C37.624,21.718,34.181,22.813,33,25z"/>
</svg>
