<?xml version="1.0" encoding="utf-8"?>
<svg style="fill:none; stroke:black; stroke-width:2;" viewBox="0 0 64 64">
  <path d="M32,0.887c17.184,0,31.113,13.929,31.112,31.113 C63.114,49.185,49.184,63.115,32,63.113C14.815,63.114,0.887,49.185,0.888,32C0.885,14.816,14.815,0.887,32,0.887z"/>
  <line x1="32" x2="32" y1="1" y2="63"/>
  <line x1="63" x2="1" y1="32" y2="32"/>
  <path d="M30,1c0,0-14,11-14,31s14,31,14,31"/>
  <path d="M34,1c0,0,14,11,14,31S34,63,34,63"/>
  <path d="M8,12c0,0,5,10,24,10s24-10,24-10"/>
  <path d="M8,52c0,0,5-10,24-10s24,10,24,10"/>
</svg>
