<?xml version="1.0" encoding="utf-8"?>
<svg style="fill:none; stroke:black; stroke-width:2;" viewBox="0 0 64 64">
  <line x1="25" x2="47" y1="24" y2="24"/>
  <line x1="25" x2="47" y1="34" y2="34"/>
  <line x1="25" x2="47" y1="44" y2="44"/>
  <line x1="25" x2="47" y1="54" y2="54"/>
  <line x1="21" x2="17" y1="24" y2="24"/>
  <line x1="21" x2="17" y1="34" y2="34"/>
  <line x1="21" x2="17" y1="44" y2="44"/>
  <line x1="21" x2="17" y1="54" y2="54"/>
  <polyline points="23,8 10,8 10,63 54,63 54,8 41,8"/>
  <polygon points="36,5 36,1 28,1 28,5 24,5 22,13 42,13 40,5"/>
</svg>
