<?xml version="1.0" encoding="utf-8"?><svg class="icon" id="basic_elaboration_calendar_cloud" style="fill:none; stroke:black; stroke-width:2;" viewBox="0 0 64 64" xmlns="http://www.w3.org/2000/svg"><g><line x1="46" x2="18" y1="10" y2="10"/><polyline points="12,10 1,10 1,58 63,58 63,10 52,10  "/><rect height="8" width="6" x="12" y="6"/><rect height="8" width="6" x="46" y="6"/></g><path d="M34.887,44H39c1.887,0,3-1,3-3c0-1-1-3-3-3  c0-3.604-3.277-6-7-6c-3.295,0-6.413,2.978-7,6l0,0c-2,0-3,2-3,3c0,2,1,3,3,3h10.434"/><line x1="1" x2="63" y1="18" y2="18"/></svg>