<?xml version="1.0" encoding="utf-8"?>
<svg style="fill:none; stroke:black; stroke-width:2;" viewBox="0 0 64 64">
  <path d="M37,32.166c1.224,0.533,2.576,0.829,4,0.828 c3.271-0,6.175-1.576,8-4L61,16.98c1.255-1.673,2-3.751,2-6c-0-5.522-4.484-10-10-10 c-2.251,0-4.327,0.747-6,2L33.989,16c-1.768,1.805-3,4.277-3,7c0,1.424,0.3,2.778,0.837,4"/>
  <path d="M37,32.166"/>
  <path d="M31.831,27c0.053,0.121,0.107,0.24,0.166,0.358"/>
  <path d="M27,31.836c-1.225-0.535-2.577-0.831-4-0.83 c-2.251,0-4.328,0.747-6,2L4,46.02c-1.768,1.804-3,4.276-3,7c0,5.522,4.484,10,10,10 c3.271-0,6.174-1.576,8-4L31.01,47c1.255-1.673,2-3.751,2-6c-0-1.422-0.299-2.774-0.835-4"/>
  <line x1="23" x2="41" y1="41" y2="23"/>
</svg>
