<?xml version="1.0" encoding="utf-8"?><svg class="icon" id="basic_elaboration_cloud_refresh" style="fill:none; stroke:black; stroke-width:2;" viewBox="0 0 64 64" xmlns="http://www.w3.org/2000/svg"><path d="M24,32c0,4.418,3.582,9,8,9h4"/><path d="M41,50h14c4.565,0,8-3.582,8-8s-3.435-8-8-8  c0-11.046-9.52-20-20.934-20C23.966,14,14.8,20.732,13,30c0,0-0.831,0-1.667,0C5.626,30,1,34.477,1,40s4.293,10,10,10H41"/><polyline points="33,45 36,41   33,37 "/><path d="M42,32c0-4.418-3.582-9-8-9h-4"/><polyline points="33,19 30,23   33,27 "/></svg>