<?xml version="1.0" encoding="utf-8"?>
<svg style="fill:none; stroke:black; stroke-width:2;" viewBox="0 0 64 64">
  <rect height="30" width="62" x="1" y="22"/>
  <polyline points="7,22 7,14 21,14 21,7 11,7 11,4"/>
  <line x1="4" x2="8" y1="29" y2="29"/>
  <line x1="10" x2="14" y1="29" y2="29"/>
  <line x1="16" x2="20" y1="29" y2="29"/>
  <line x1="22" x2="26" y1="29" y2="29"/>
  <line x1="28" x2="32" y1="29" y2="29"/>
  <line x1="34" x2="38" y1="29" y2="29"/>
  <line x1="40" x2="44" y1="29" y2="29"/>
  <line x1="46" x2="50" y1="29" y2="29"/>
  <line x1="52" x2="56" y1="29" y2="29"/>
  <line x1="4" x2="8" y1="45" y2="45"/>
  <line x1="10" x2="14" y1="45" y2="45"/>
  <line x1="16" x2="42" y1="45" y2="45"/>
  <line x1="50" x2="54" y1="45" y2="45"/>
  <line x1="56" x2="60" y1="45" y2="45"/>
  <line x1="44" x2="48" y1="45" y2="45"/>
  <line x1="8" x2="12" y1="37" y2="37"/>
  <line x1="14" x2="18" y1="37" y2="37"/>
  <line x1="20" x2="24" y1="37" y2="37"/>
  <line x1="26" x2="30" y1="37" y2="37"/>
  <line x1="32" x2="36" y1="37" y2="37"/>
  <line x1="38" x2="42" y1="37" y2="37"/>
  <line x1="44" x2="48" y1="37" y2="37"/>
  <line x1="50" x2="54" y1="37" y2="37"/>
  <line x1="56" x2="60" y1="37" y2="37"/>
</svg>
