<?xml version="1.0" encoding="utf-8"?><svg class="icon" id="ecommerce_receipt_lira" style="fill:none; stroke:black; stroke-width:2;" viewBox="0 0 64 64" xmlns="http://www.w3.org/2000/svg"><g><polygon points="52,62.999 52,0.999 26,0.999 12,14.999    12,63 16,61 20,63 24,61 28,63 32,61 36,63 40,61 44,63 48,61  "/><polyline points="12,14.999 26,14.999 26,0.999  "/></g><path d="M39,23c0,0-1.062-1.916-4.941-1.916  C30.178,21.084,27,22.074,27,26c0,3.927,0,21,0,21h11"/><line x1="22" x2="34" y1="34" y2="34"/><line x1="22" x2="34" y1="38" y2="38"/><line x1="22" x2="27" y1="47" y2="47"/></svg>