<?xml version="1.0" encoding="utf-8"?>
<svg style="fill:none; stroke:black; stroke-width:2;" viewBox="0 0 64 64">
  <rect height="39" width="2" x="29" y="13"/>
  <rect height="39" width="2" x="33" y="13"/>
  <path d="M40.988,23c0,0,0-6-9-6s-8,7-8,7s0,7,8,7 c9,0,10.012,6,10.012,7c0,2,0.988,8-10.012,8c-9,0-8.988-4-8.988-5"/>
  <path d="M53.92,10.081c12.107,12.105,12.107,31.732,0,43.838 c-12.106,12.108-31.734,12.108-43.839,0c-12.107-12.105-12.107-31.732,0-43.838C22.186-2.027,41.813-2.027,53.92,10.081z"/>
</svg>
