<?xml version="1.0" encoding="utf-8"?><svg class="icon" id="ecommerce_receipt_bath" style="fill:none; stroke:black; stroke-width:2;" viewBox="0 0 64 64" xmlns="http://www.w3.org/2000/svg"><g><polygon points="52,62.999 52,0.999 26,0.999 12,14.999    12,63 16,61 20,63 24,61 28,63 32,61 36,63 40,61 44,63 48,61  "/><polyline points="12,14.999 26,14.999 26,0.999  "/></g><line x1="26" x2="26" y1="48" y2="22"/><path d="M26,23h5c0,0,6,0,6,6c0,5-6,5-6,5h-5"/><path d="M27,34h5c0,0,7-0.226,7,7c0,6-7,6-7,6h-6"/><line x1="32" x2="32" y1="20" y2="50"/></svg>