<?xml version="1.0" encoding="utf-8"?><svg class="icon" id="music_microphone_old" style="fill:none; stroke:black; stroke-width:2;" viewBox="0 0 64 64" xmlns="http://www.w3.org/2000/svg"><line x1="17" x2="47" y1="63" y2="63"/><line x1="32" x2="32" y1="62" y2="42"/><path d="M48,26c0,8-8,16-16,16s-16-8-16-16"/><path d="M40,27c0,4.418-3.582,8-8,8s-8-3.582-8-8V9  c0-4.418,3.582-8,8-8s8,3.582,8,8V27z"/><line x1="29" x2="24" y1="13" y2="13"/><line x1="29" x2="24" y1="23" y2="23"/><line x1="40" x2="35" y1="13" y2="13"/><line x1="40" x2="35" y1="23" y2="23"/></svg>