<?xml version="1.0" encoding="utf-8"?>
<svg style="fill:none; stroke:black; stroke-width:2;" viewBox="0 0 64 64">
  <polygon points="46,1 6,1 26,21"/>
  <polyline points="7.414,61.586 6,63 8,63"/>
  <line stroke-dasharray="4,2" x1="10" x2="43" y1="63" y2="63"/>
  <polyline points="44,63 46,63 44.586,61.586"/>
  <line stroke-dasharray="3.736,1.868" x1="43.265" x2="28.075" y1="60.265" y2="45.075"/>
  <polyline points="27.414,44.414 26,43 24.586,44.414"/>
  <line stroke-dasharray="3.736,1.868" x1="23.265" x2="8.075" y1="45.735" y2="60.925"/>
  <line x1="2" x2="4" y1="32" y2="32"/>
  <line stroke-dasharray="4,2" x1="6" x2="47" y1="32" y2="32"/>
  <line x1="48" x2="50" y1="32" y2="32"/>
  <polyline points="51,46 51,57 62,57"/>
  <path d="M51,57c7.868-5.622,12-14.592,12-25 c0-10.409-4.13-19.378-12-25"/>
</svg>
