<?xml version="1.0" encoding="utf-8"?><svg class="icon" id="software_paragraph_space_after" style="fill:none; stroke:black; stroke-width:2;" viewBox="0 0 64 64" xmlns="http://www.w3.org/2000/svg"><line x1="22" x2="64" y1="6" y2="6"/><line x1="22" x2="56" y1="16" y2="16"/><line x1="22" x2="64" y1="26" y2="26"/><line x1="22" x2="58" y1="36" y2="36"/><g><g><polyline points="59,48 59,46 57,46   "/><line stroke-dasharray="4,2" x1="55" x2="26" y1="46" y2="46"/><polyline points="25,46 23,46 23,48   "/><line stroke-dasharray="3,2" x1="23" x2="23" y1="50" y2="53"/><polyline points="23,54 23,56 25,56   "/><line stroke-dasharray="4,2" x1="27" x2="56" y1="56" y2="56"/><polyline points="57,56 59,56 59,54   "/><line stroke-dasharray="3,2" x1="59" x2="59" y1="53" y2="49"/></g></g><g><polyline points="10,58 17,51    10,44  "/><g><line x1="17" x2="0" y1="51" y2="51"/></g></g></svg>