<?xml version="1.0" encoding="utf-8"?><svg class="icon" id="software_scale_reduce" style="fill:none; stroke:black; stroke-width:2;" viewBox="0 0 64 64" xmlns="http://www.w3.org/2000/svg"><polyline points="1,30 1,1 63,1 63,63 34,63 "/><g><g><polyline points="31,35 31,33 29,33   "/><line stroke-dasharray="4,2" x1="27" x2="4" y1="33" y2="33"/><polyline points="3,33 1,33 1,35   "/><line stroke-dasharray="4,2" x1="1" x2="1" y1="37" y2="60"/><polyline points="1,61 1,63 3,63   "/><line stroke-dasharray="4,2" x1="5" x2="28" y1="63" y2="63"/><polyline points="29,63 31,63 31,61   "/><line stroke-dasharray="4,2" x1="31" x2="31" y1="59" y2="36"/></g></g><polyline points="41,12 41,23   52,23 "/><line x1="41" x2="57" y1="23" y2="7"/></svg>