<?xml version="1.0" encoding="utf-8"?><svg class="icon" id="weather_hail" style="fill:none; stroke:black; stroke-width:2;" viewBox="0 0 64 64" xmlns="http://www.w3.org/2000/svg"><path d="M55,40c4.565,0,8-3.435,8-8c0-4.565-3.435-9-8-9  c0-11.414-9.586-20-21-20C23.898,3,14.8,9.423,13,19c0,0-1.165,0-2,0C5.292,19,1,24.292,1,30s4.292,10,10,10H55z"/><line x1="24" x2="19" y1="45" y2="56"/><line x1="14" x2="9" y1="45" y2="56"/><line x1="34" x2="29" y1="45" y2="56"/><line x1="44" x2="39" y1="45" y2="56"/><line x1="54" x2="49" y1="45" y2="56"/><line x1="17" x2="16" y1="59" y2="61"/><line x1="7" x2="6" y1="59" y2="61"/><line x1="27" x2="26" y1="59" y2="61"/><line x1="37" x2="36" y1="59" y2="61"/><line x1="47" x2="46" y1="59" y2="61"/></svg>