<?xml version="1.0" encoding="utf-8"?><svg class="icon" id="weather_mistyrain" style="fill:none; stroke:black; stroke-width:2;" viewBox="0 0 64 64" xmlns="http://www.w3.org/2000/svg"><path d="M55,40c4.565,0,8-3.435,8-8c0-4.565-3.435-9-8-9  c0-11.414-9.586-20-21-20C23.898,3,14.8,9.423,13,19c0,0-1.165,0-2,0C5.292,19,1,24.292,1,30s4.292,10,10,10H55z"/><line x1="17" x2="16" y1="59" y2="61"/><line x1="7" x2="6" y1="59" y2="61"/><line x1="27" x2="26" y1="59" y2="61"/><line x1="37" x2="36" y1="59" y2="61"/><line x1="47" x2="46" y1="59" y2="61"/><line x1="24" x2="23" y1="52" y2="54"/><line x1="14" x2="13" y1="52" y2="54"/><line x1="34" x2="33" y1="52" y2="54"/><line x1="44" x2="43" y1="52" y2="54"/><line x1="54" x2="53" y1="52" y2="54"/><line x1="19" x2="18" y1="44" y2="46"/><line x1="9" x2="8" y1="44" y2="46"/><line x1="29" x2="28" y1="44" y2="46"/><line x1="39" x2="38" y1="44" y2="46"/><line x1="49" x2="48" y1="44" y2="46"/></svg>