<?xml version="1.0" encoding="utf-8"?><svg class="icon" id="weather_storm-11" style="fill:none; stroke:black; stroke-width:2;" viewBox="0 0 64 64" xmlns="http://www.w3.org/2000/svg"><path d="M55,40c4.565,0,8-3.435,8-8c0-4.565-3.435-9-8-9  c0-11.414-9.586-20-21-20C23.898,3,14.8,9.423,13,19c0,0-1.165,0-2,0C5.292,19,1,24.292,1,30s4.292,10,10,10H55z"/><line x1="23" x2="15" y1="46" y2="60"/><line x1="13" x2="5" y1="46" y2="60"/><line x1="33" x2="25" y1="46" y2="60"/><line x1="43" x2="35" y1="46" y2="60"/><line x1="53" x2="45" y1="46" y2="60"/></svg>