<?xml version="1.0" encoding="utf-8"?><svg class="icon" id="weather_snowflake" style="fill:none; stroke:black; stroke-width:2;" viewBox="0 0 64 64" xmlns="http://www.w3.org/2000/svg"><polyline points="1,24 9,32 1,40 "/><polyline points="63,40 55,32 63,24 "/><polyline points="24,63 32,55 40,63 "/><polyline points="40,1 32,9 24,1 "/><polyline points="5,49 15,49 15,59 "/><polyline points="59,15 49,15 49,5 "/><line x1="38" x2="49" y1="26" y2="15"/><line x1="15" x2="26" y1="49" y2="38"/><polyline points="15,5 15,15 5,15 "/><polyline points="49,59 49,49 59,49 "/><line x1="38" x2="49" y1="38" y2="49"/><line x1="15" x2="26" y1="15" y2="26"/><line x1="40" x2="55" y1="32" y2="32"/><line x1="9" x2="24" y1="32" y2="32"/><line x1="32" x2="32" y1="40" y2="55"/><line x1="32" x2="32" y1="9" y2="24"/><circle cx="32" cy="32" r="8"/></svg>